<svg width="30" height="30" viewBox="0 0 30 30" fill="none" xmlns="http://www.w3.org/2000/svg">
<path d="M26.3282 15.3492C26.3282 12.2696 25.1049 9.31624 22.9273 7.13868C20.7498 4.96113 17.7964 3.73779 14.7168 3.73779C11.6373 3.73779 8.68391 4.96113 6.50636 7.13868C4.32881 9.31624 3.10547 12.2696 3.10547 15.3492C3.10547 18.4287 4.32881 21.3821 6.50636 23.5596C8.68391 25.7372 11.6373 26.9605 14.7168 26.9605C17.7964 26.9605 20.7498 25.7372 22.9273 23.5596C25.1049 21.3821 26.3282 18.4287 26.3282 15.3492ZM4.55689 15.3492C4.55689 14.0149 4.81968 12.6938 5.33027 11.4611C5.84085 10.2285 6.58923 9.10843 7.53267 8.16499C8.47611 7.22155 9.59613 6.47318 10.8288 5.96259C12.0615 5.45201 13.3826 5.18921 14.7168 5.18921C16.0511 5.18921 17.3722 5.45201 18.6049 5.96259C19.8375 6.47318 20.9576 7.22155 21.901 8.16499C22.8444 9.10843 23.5928 10.2285 24.1034 11.4611C24.614 12.6938 24.8768 14.0149 24.8768 15.3492C24.8768 18.0437 23.8064 20.628 21.901 22.5333C19.9956 24.4387 17.4114 25.5091 14.7168 25.5091C12.0223 25.5091 9.43803 24.4387 7.53267 22.5333C5.62731 20.628 4.55689 18.0437 4.55689 15.3492ZM19.7968 13.172C19.7968 12.7871 19.6439 12.4179 19.3717 12.1457C19.0995 11.8735 18.7303 11.7206 18.3454 11.7206C17.9604 11.7206 17.5913 11.8735 17.3191 12.1457C17.0469 12.4179 16.894 12.7871 16.894 13.172C16.894 13.557 17.0469 13.9261 17.3191 14.1983C17.5913 14.4705 17.9604 14.6234 18.3454 14.6234C18.7303 14.6234 19.0995 14.4705 19.3717 14.1983C19.6439 13.9261 19.7968 13.557 19.7968 13.172ZM12.5397 13.172C12.5397 12.7871 12.3868 12.4179 12.1146 12.1457C11.8424 11.8735 11.4732 11.7206 11.0883 11.7206C10.7033 11.7206 10.3342 11.8735 10.062 12.1457C9.78978 12.4179 9.63686 12.7871 9.63686 13.172C9.63686 13.557 9.78978 13.9261 10.062 14.1983C10.3342 14.4705 10.7033 14.6234 11.0883 14.6234C11.4732 14.6234 11.8424 14.4705 12.1146 14.1983C12.3868 13.9261 12.5397 13.557 12.5397 13.172ZM10.2015 18.9995C10.1415 18.9253 10.0676 18.8637 9.9838 18.8182C9.90005 18.7726 9.80814 18.744 9.71332 18.7339C9.61851 18.7239 9.52264 18.7326 9.4312 18.7596C9.33976 18.7867 9.25454 18.8314 9.18039 18.8914C9.10625 18.9513 9.04463 19.0253 8.99907 19.109C8.95351 19.1928 8.92489 19.2847 8.91485 19.3795C8.90481 19.4743 8.91355 19.5702 8.94055 19.6616C8.96756 19.7531 9.01231 19.8383 9.07226 19.9124C9.75274 20.7539 10.6128 21.4325 11.5895 21.8986C12.5661 22.3647 13.6347 22.6065 14.7168 22.6063C16.9956 22.6063 19.0319 21.554 20.3614 19.9124C20.4214 19.8383 20.4663 19.753 20.4934 19.6616C20.5205 19.5701 20.5293 19.4742 20.5193 19.3793C20.5094 19.2844 20.4808 19.1924 20.4353 19.1086C20.3897 19.0247 20.3281 18.9507 20.254 18.8906C20.1799 18.8306 20.0946 18.7857 20.0031 18.7586C19.9117 18.7315 19.8157 18.7227 19.7209 18.7327C19.626 18.7427 19.534 18.7712 19.4501 18.8168C19.3663 18.8623 19.2922 18.9239 19.2322 18.998C18.688 19.6715 18.0001 20.2147 17.2188 20.5879C16.4375 20.9611 15.5827 21.1548 14.7168 21.1548C13.8511 21.155 12.9963 20.9615 12.215 20.5885C11.4338 20.2156 10.7458 19.6727 10.2015 18.9995Z" fill="#333333"/>
</svg>
