<svg width="22" height="22" viewBox="0 0 22 22" fill="none" xmlns="http://www.w3.org/2000/svg">
<rect x="1.6599" y="1.67357" width="19.3523" height="19.3523" rx="3.62855" stroke="#333333" stroke-width="1.38231"/>
<path d="M10.9037 13.9415V8.75781H12.1996V13.9415H10.9037ZM6.15203 13.9415C5.89284 13.9415 5.68406 13.8516 5.52567 13.6719C5.36728 13.4922 5.28809 13.2941 5.28809 13.0775V9.62175C5.28809 9.40577 5.36728 9.20793 5.52567 9.02823C5.68406 8.84853 5.89284 8.75839 6.15203 8.75781H8.74385C9.00303 8.75781 9.21182 8.84795 9.37021 9.02823C9.5286 9.2085 9.60779 9.40634 9.60779 9.62175V10.0537H6.584V12.6455H8.31188V11.3496H9.60779V13.0775C9.60779 13.2935 9.5286 13.4916 9.37021 13.6719C9.21182 13.8522 9.00303 13.942 8.74385 13.9415H6.15203ZM13.4955 13.9415V8.75781H17.3833V10.0537H14.7914V10.9177H16.5193V12.2136H14.7914V13.9415H13.4955Z" fill="#333333"/>
</svg>
