<svg width="26" height="26" viewBox="0 0 26 26" fill="none" xmlns="http://www.w3.org/2000/svg">
<path d="M20.5213 3.32715H6.00705C4.86191 3.32715 3.93359 4.25547 3.93359 5.40061V19.9148C3.93359 21.06 4.86191 21.9883 6.00705 21.9883H20.5213C21.6664 21.9883 22.5947 21.06 22.5947 19.9148V5.40061C22.5947 4.25547 21.6664 3.32715 20.5213 3.32715Z" stroke="#333333" stroke-width="1.38231" stroke-linecap="round" stroke-linejoin="round"/>
<path d="M9.63517 10.5843C10.494 10.5843 11.1903 9.88807 11.1903 9.02921C11.1903 8.17036 10.494 7.47412 9.63517 7.47412C8.77632 7.47412 8.08008 8.17036 8.08008 9.02921C8.08008 9.88807 8.77632 10.5843 9.63517 10.5843Z" stroke="#333333" stroke-width="1.38231" stroke-linecap="round" stroke-linejoin="round"/>
<path d="M22.5945 15.7676L17.4109 10.584L6.00684 21.988" stroke="#333333" stroke-width="1.38231" stroke-linecap="round" stroke-linejoin="round"/>
</svg>
