<svg width="38" height="38" viewBox="0 0 38 38" fill="none" xmlns="http://www.w3.org/2000/svg">
<path d="M8.55 29.45L22.8 22.8L29.45 8.54999L15.2 15.2L8.55 29.45ZM19 20.9C18.4617 20.9 18.0107 20.7176 17.6472 20.3528C17.2837 19.988 17.1013 19.5371 17.1 19C17.0987 18.4629 17.2811 18.012 17.6472 17.6472C18.0133 17.2824 18.4642 17.1 19 17.1C19.5358 17.1 19.9874 17.2824 20.3547 17.6472C20.722 18.012 20.9038 18.4629 20.9 19C20.8962 19.5371 20.7138 19.9886 20.3528 20.3547C19.9918 20.7208 19.5409 20.9025 19 20.9ZM19 38C16.3717 38 13.9017 37.5009 11.59 36.5028C9.27833 35.5046 7.2675 34.1512 5.5575 32.4425C3.8475 30.7337 2.49407 28.7229 1.4972 26.41C0.500336 24.097 0.00126907 21.6271 2.40506e-06 19C-0.00126426 16.3729 0.497802 13.9029 1.4972 11.59C2.4966 9.27706 3.85003 7.26623 5.5575 5.5575C7.26496 3.84876 9.2758 2.49533 11.59 1.4972C13.9042 0.499067 16.3742 0 19 0C21.6258 0 24.0958 0.499067 26.41 1.4972C28.7242 2.49533 30.735 3.84876 32.4425 5.5575C34.1499 7.26623 35.504 9.27706 36.5047 11.59C37.5053 13.9029 38.0038 16.3729 38 19C37.9962 21.6271 37.4971 24.097 36.5028 26.41C35.5084 28.7229 34.155 30.7337 32.4425 32.4425C30.73 34.1512 28.7191 35.5053 26.41 36.5047C24.1009 37.5041 21.6309 38.0025 19 38Z" fill="#FA7640"/>
</svg>
