<svg width="153" height="62" viewBox="0 0 153 62" fill="none" xmlns="http://www.w3.org/2000/svg">
<path d="M14.9237 12H16.5493L18.8945 12.0615L21.4528 12.1537L24.5175 12.3689L25.9033 12.4918L28.5682 12.7685L29.7941 12.9222L30.2472 13.0452L30.5669 13.1989L30.94 13.4141L31.2598 13.6907L31.473 13.9674L31.6329 14.3363L31.6596 14.4285V14.7974L31.5263 15.1048L31.3664 15.32L31.0999 15.5659L30.7268 15.7811L30.3271 15.9348L29.6342 16.1192L28.8614 16.2422L25.8233 16.5803L23.1051 16.9185L21.6394 17.1337L19.4808 17.5025L17.8551 17.81L16.6559 18.0866L14.8171 18.5477L13.6445 18.9166L12.6052 19.2855L11.7791 19.6236L10.873 20.054L10.0735 20.4844L9.19407 20.9455L8.52783 21.3451L7.94154 21.714L7.5418 21.9907L7.08876 22.3288L6.66237 22.6362L6.15603 23.0358L5.70299 23.4047L5.2233 23.8043L4.87685 24.1117L4.55706 24.4499L4.29057 24.6958L3.94412 25.034L3.67763 25.3106L3.46443 25.5258L3.14464 25.864L2.93144 26.0791L2.61165 26.4173L2.39845 26.6325L1.25253 27.9543L1.06598 28.2002L0.826134 28.5076L0.639587 28.7536L0.399742 29.061L0.106598 29.4913L0 29.5221V27.2165L0.0532989 25.2491L0.133247 23.5277L0.239845 22.1751L0.479691 20.3922L0.772835 18.7014L1.01268 17.7485L1.35912 16.734L1.57232 16.2114L1.89211 15.6274L2.10531 15.2892L2.4251 14.8896L2.6916 14.6129L3.09134 14.3055L3.73093 13.9059L4.37051 13.5985L5.2766 13.2604L6.26263 12.953L7.32861 12.707L8.55448 12.4918L9.64711 12.3381L10.8463 12.2152L12.6585 12.0922L14.9237 12Z" fill="#333333"/>
<path d="M16.2895 24.0579H17.3124L18.7881 24.0964L20.398 24.1543L22.3265 24.2892L23.1986 24.3663L24.8755 24.5398L25.6469 24.6362L25.932 24.7133L26.1332 24.8097L26.368 24.9446L26.5693 25.1181L26.7034 25.2916L26.804 25.523L26.8208 25.5808V25.8122L26.737 26.0049L26.6363 26.1399L26.4686 26.2941L26.2339 26.429L25.9823 26.5254L25.5463 26.6411L25.06 26.7182L23.1482 26.9303L21.4377 27.1423L20.5154 27.2773L19.1571 27.5086L18.1341 27.7014L17.3795 27.8749L16.2224 28.1641L15.4845 28.3954L14.8305 28.6267L14.3106 28.8388L13.7405 29.1087L13.2374 29.3786L12.684 29.6677L12.2647 29.9184L11.8958 30.1497L11.6443 30.3232L11.3592 30.5352L11.0909 30.728L10.7722 30.9786L10.4871 31.21L10.1853 31.4606L9.96729 31.6534L9.76605 31.8654L9.59835 32.0196L9.38035 32.2317L9.21265 32.4052L9.07849 32.5401L8.87726 32.7522L8.7431 32.8872L8.54186 33.0992L8.40771 33.2342L7.68661 34.0631L7.56922 34.2173L7.4183 34.4101L7.30091 34.5643L7.14998 34.7571L6.96552 35.027L6.89844 35.0463V33.6004L6.93198 32.3666L6.98229 31.2871L7.04936 30.4389L7.20029 29.3207L7.38476 28.2604L7.53568 27.6628L7.75369 27.0267L7.88785 26.6989L8.08908 26.3327L8.22324 26.1206L8.42448 25.87L8.59217 25.6965L8.84372 25.5037L9.24619 25.2531L9.64866 25.0603L10.2188 24.8483L10.8393 24.6555L11.5101 24.5013L12.2815 24.3663L12.9691 24.2699L13.7237 24.1928L14.864 24.1157L16.2895 24.0579Z" fill="#333333"/>
<path d="M6.84669 24.9478H6.9L6.84669 25.2549L6.52683 26.2991L6.31358 27.159L5.94041 28.9096L5.72717 30.1073L5.56724 31.1515L5.32734 32.9021L5.08745 34.9598L4.92752 36.6489L4.66097 40.1194L4.52769 42.0849L4.39442 44.0198L4.2878 45.3097L4.18117 46.1696L4.02124 46.9067L3.808 47.4902L3.64807 47.7973L3.46149 48.043L3.19493 48.258L3.035 48.3194L2.84842 48.3501H2.63518L2.28866 48.2273L2.04876 48.0123L1.78221 47.7052L1.51566 47.2138L1.38239 46.8452L1.27577 46.3846L1.16914 45.4939L0.929249 43.2827L0.769318 41.7778L0.449456 38.0617L0.369491 36.9561L0.236215 35.0212L0.15625 33.2706V32.6257L0.342836 32.3493L0.636042 31.95L0.875938 31.5815L1.14249 31.2437L1.4357 30.8137L1.80887 30.353L2.04876 30.0152L2.31532 29.6774L2.5019 29.4317L2.63518 29.2474L4.23448 27.4047L4.44773 27.1897L4.68762 26.9133L4.98083 26.6369L5.354 26.2684L5.70052 25.9305L6.04703 25.6234L6.47352 25.2549L6.82003 24.9785L6.84669 24.9478Z" fill="#333333"/>
<path d="M41.1684 16.8211H34.947V11.1979H41.1684V16.8211ZM41.1684 48H34.947V22.1332H41.1684V48ZM72.1559 39.2661C72.1559 40.3349 72.0203 41.3 71.7491 42.1614C71.4779 43.0069 71.119 43.7567 70.6723 44.4107C70.2257 45.0488 69.7072 45.5992 69.117 46.0618C68.5267 46.5085 67.9046 46.8754 67.2505 47.1625C66.6124 47.4496 65.9584 47.665 65.2884 47.8086C64.6343 47.9362 64.0122 48 63.422 48H46.5763V41.7786H63.3741C64.2196 41.7786 64.8577 41.5632 65.2884 41.1325C65.7191 40.7018 65.9345 40.0797 65.9345 39.2661C65.8547 37.607 65.0172 36.7775 63.422 36.7775H53.7788C52.4069 36.7775 51.2423 36.5382 50.2852 36.0597C49.3281 35.5811 48.5464 34.9829 47.9402 34.265C47.35 33.5472 46.9192 32.7735 46.6481 31.9439C46.3928 31.1144 46.2652 30.3407 46.2652 29.6229C46.2652 28.235 46.5125 27.0705 47.007 26.1293C47.5015 25.1722 48.1236 24.3985 48.8734 23.8082C49.6232 23.218 50.4367 22.7953 51.3141 22.54C52.1915 22.2688 53.013 22.1332 53.7788 22.1332H69.0691V28.3547H53.8266C53.5076 28.3547 53.2523 28.3945 53.0609 28.4743C52.8854 28.5381 52.7498 28.6338 52.6541 28.7614C52.5744 28.8731 52.5265 29.0007 52.5106 29.1443C52.4946 29.2719 52.4866 29.3995 52.4866 29.5272C52.5026 29.7824 52.5504 29.9818 52.6302 30.1254C52.71 30.2689 52.8057 30.3726 52.9173 30.4364C53.045 30.5003 53.1805 30.5401 53.3241 30.5561C53.4836 30.5561 53.6352 30.5561 53.7788 30.5561H63.422C65.0172 30.5561 66.3732 30.8432 67.4898 31.4175C68.6065 31.9918 69.5078 32.7176 70.1937 33.595C70.8797 34.4564 71.3742 35.3976 71.6773 36.4186C71.9964 37.4395 72.1559 38.3887 72.1559 39.2661ZM82.8519 16.8211H76.6305V11.1979H82.8519V16.8211ZM82.8519 48H76.6305V22.1332H82.8519V48ZM119.223 48H110.25L97.7116 35.8922C97.0097 35.2541 96.6826 34.4564 96.7305 33.4993C96.7624 33.0526 96.8741 32.6379 97.0655 32.255C97.2729 31.8562 97.5521 31.5212 97.903 31.25L109.269 22.0854H119.223L104.579 33.8822L119.223 48ZM95.1512 48H88.9298V11.1979H95.1512V48ZM149.995 39.2661C149.995 40.3349 149.86 41.3 149.589 42.1614C149.317 43.0069 148.959 43.7567 148.512 44.4107C148.065 45.0488 147.547 45.5992 146.957 46.0618C146.366 46.5085 145.744 46.8754 145.09 47.1625C144.452 47.4496 143.798 47.665 143.128 47.8086C142.474 47.9362 141.852 48 141.262 48H130.039C129.178 48 128.236 47.8485 127.215 47.5454C126.195 47.2423 125.245 46.7477 124.368 46.0618C123.507 45.3599 122.781 44.4586 122.19 43.3579C121.616 42.2412 121.329 40.8773 121.329 39.2661V30.8432C121.329 29.248 121.616 27.9 122.19 26.7993C122.781 25.6826 123.507 24.7813 124.368 24.0954C125.245 23.3935 126.195 22.891 127.215 22.5879C128.236 22.2848 129.178 22.1332 130.039 22.1332H141.262C142.857 22.1332 144.213 22.4204 145.329 22.9947C146.446 23.569 147.347 24.2948 148.033 25.1722C148.719 26.0336 149.214 26.9748 149.517 27.9957C149.836 29.0167 149.995 29.9659 149.995 30.8432V39.2661ZM143.774 30.8911C143.774 30.0297 143.559 29.3916 143.128 28.9768C142.697 28.562 142.075 28.3547 141.262 28.3547H130.087C129.257 28.3547 128.627 28.57 128.197 29.0007C127.766 29.4155 127.55 30.0297 127.55 30.8432V39.2661C127.55 40.0797 127.766 40.7018 128.197 41.1325C128.627 41.5632 129.257 41.7786 130.087 41.7786H141.262C142.107 41.7786 142.737 41.5632 143.152 41.1325C143.567 40.7018 143.774 40.0797 143.774 39.2661V30.8911Z" fill="#333333"/>
</svg>
