<svg width="2869" height="3030" viewBox="0 0 2869 3030" fill="none" xmlns="http://www.w3.org/2000/svg">
<path opacity="0.02" d="M336.152 1306.95C214.19 1217.81 238.132 1112.52 265.348 1071.02L639.42 423.104L2868.78 1710.23L2494.71 2358.14C2472.37 2402.46 2393.16 2475.84 2254.98 2414.78C2082.26 2338.47 2051.18 2402.45 1997.56 2437.81C1943.95 2473.17 1875.68 2500.08 1759.33 2380.24C1642.99 2260.4 1514.37 2168.59 1356.31 2202.17C1229.87 2229.03 1144.44 2191.02 1114.82 2173.92C1085.21 2156.83 1009.57 2101.84 969.618 1978.91C919.674 1825.24 775.851 1759.76 613.895 1718.92C451.939 1678.08 441.106 1605.51 444.922 1541.39C448.738 1477.28 488.605 1418.37 336.152 1306.95Z" fill="black"/>
<path d="M467.097 1168.87C381.084 1069.29 422.061 984.637 453.301 954.756L897.885 478.299L2537.29 2008.04L2092.71 2484.5C2065.06 2517.73 1983.44 2564.46 1878.15 2485.54C1746.54 2386.88 1707.62 2435.08 1655.18 2454.57C1602.73 2474.06 1539.52 2483.5 1464.3 2358.97C1389.07 2234.44 1297.93 2131.28 1157.21 2128.77C1044.63 2126.76 979.587 2077.74 957.81 2057.42C936.034 2037.1 882.631 1975.6 872.845 1863.43C860.611 1723.22 751.403 1639.43 621.971 1572.99C492.54 1506.55 497.587 1442.84 513.405 1389.18C529.223 1335.51 574.614 1293.35 467.097 1168.87Z" fill="black"/>
<path d="M467.097 1168.87C381.084 1069.29 422.061 984.637 453.301 954.756L897.885 478.299L2537.29 2008.04L2092.71 2484.5C2065.06 2517.73 1983.44 2564.46 1878.15 2485.54C1746.54 2386.88 1707.62 2435.08 1655.18 2454.57C1602.73 2474.06 1539.52 2483.5 1464.3 2358.97C1389.07 2234.44 1297.93 2131.28 1157.21 2128.77C1044.63 2126.76 979.587 2077.74 957.81 2057.42C936.034 2037.1 882.631 1975.6 872.845 1863.43C860.611 1723.22 751.403 1639.43 621.971 1572.99C492.54 1506.55 497.587 1442.84 513.405 1389.18C529.223 1335.51 574.614 1293.35 467.097 1168.87Z" fill="url(#paint0_linear_1_171)"/>
<path d="M586.178 434.619C552.033 307.542 625.75 249.133 666.877 235.813L1274.43 0.135126L2085.36 2090.63L1477.81 2326.31C1438.46 2344.21 1344.63 2350.79 1284.15 2233.93C1208.55 2087.85 1152.53 2114.32 1096.84 2109.06C1041.14 2103.81 980.112 2084.81 966.533 1939.96C952.955 1795.11 915.75 1662.58 790.127 1599.12C689.63 1548.35 652.378 1475.92 641.606 1448.15C630.835 1420.38 609.496 1341.77 649.467 1236.51C699.431 1104.94 637.534 981.988 549.88 865.872C462.226 749.755 494.48 694.577 532.062 653.135C569.645 611.693 628.858 593.465 586.178 434.619Z" fill="black"/>
<path d="M586.178 434.619C552.033 307.542 625.75 249.133 666.877 235.813L1274.43 0.135126L2085.36 2090.63L1477.81 2326.31C1438.46 2344.21 1344.63 2350.79 1284.15 2233.93C1208.55 2087.85 1152.53 2114.32 1096.84 2109.06C1041.14 2103.81 980.112 2084.81 966.533 1939.96C952.955 1795.11 915.75 1662.58 790.127 1599.12C689.63 1548.35 652.378 1475.92 641.606 1448.15C630.835 1420.38 609.496 1341.77 649.467 1236.51C699.431 1104.94 637.534 981.988 549.88 865.872C462.226 749.755 494.48 694.577 532.062 653.135C569.645 611.693 628.858 593.465 586.178 434.619Z" fill="url(#paint1_linear_1_171)"/>
<path d="M824.002 1004.15C770.822 883.789 834.738 814.793 873.343 795.339L1437.7 469.507L2558.84 2411.37L2394.48 2587.2C2358.33 2610.91 2266.62 2631.76 2188.97 2525.53C2091.92 2392.74 2040.61 2427.46 1984.76 2430.79C1928.92 2434.11 1539.5 2524.83 1430.13 2423.6C1323.36 2324.78 1337.52 2167.26 1203.67 2123.75C1096.59 2088.95 1048.69 2023.07 1033.8 1997.27C1018.91 1971.48 985.797 1897.06 1009.2 1786.93C1038.45 1649.26 958.476 1537.22 854.092 1435.88C749.709 1334.54 773.144 1275.07 803.946 1228.37C834.748 1181.67 890.476 1154.6 824.002 1004.15Z" fill="black"/>
<path d="M824.002 1004.15C770.822 883.789 834.738 814.793 873.343 795.339L1437.7 469.507L2558.84 2411.37L2394.48 2587.2C2358.33 2610.91 2266.62 2631.76 2188.97 2525.53C2091.92 2392.74 2040.61 2427.46 1984.76 2430.79C1928.92 2434.11 1539.5 2524.83 1430.13 2423.6C1323.36 2324.78 1337.52 2167.26 1203.67 2123.75C1096.59 2088.95 1048.69 2023.07 1033.8 1997.27C1018.91 1971.48 985.797 1897.06 1009.2 1786.93C1038.45 1649.26 958.476 1537.22 854.092 1435.88C749.709 1334.54 773.144 1275.07 803.946 1228.37C834.748 1181.67 890.476 1154.6 824.002 1004.15Z" fill="url(#paint2_linear_1_171)"/>
<defs>
<linearGradient id="paint0_linear_1_171" x1="-350.042" y1="686.47" x2="1641.03" y2="2291.73" gradientUnits="userSpaceOnUse">
<stop stop-color="#1C1919"/>
<stop offset="0.505208" stop-color="#5F544F"/>
<stop offset="0.931" stop-color="#686655"/>
<stop offset="1" stop-color="#A7A7A3"/>
</linearGradient>
<linearGradient id="paint1_linear_1_171" x1="703.718" y1="336.698" x2="1378.14" y2="2846.95" gradientUnits="userSpaceOnUse">
<stop/>
<stop offset="0.721" stop-color="#5C5653"/>
<stop offset="1" stop-color="#6B6B65"/>
</linearGradient>
<linearGradient id="paint2_linear_1_171" x1="1388.13" y1="497.958" x2="1674.27" y2="3216.26" gradientUnits="userSpaceOnUse">
<stop stop-color="#292929"/>
<stop offset="0.481809" stop-color="#201612"/>
<stop offset="1" stop-color="white"/>
</linearGradient>
</defs>
</svg>
