<svg width="1920" height="928" viewBox="0 0 1920 928" fill="none" xmlns="http://www.w3.org/2000/svg">
<path d="M2097.44 718.08C2238.32 772.616 2242.45 880.514 2226.9 927.646L2033.26 912.293L-20.0022 912.294L-259.629 261.383C-249.527 212.791 -192.006 121.412 -42.7344 144.621C143.855 173.632 157.316 103.79 199.954 55.7564C242.592 7.72243 301.567 -35.9341 444.966 49.707C588.366 135.348 736.367 190.744 880.343 117.4C995.522 58.724 1087.89 73.3298 1120.91 82.1797C1153.94 91.0297 1241.23 124.562 1311.65 232.967C1399.66 368.473 1555.53 394.499 1722.54 392.031C1889.55 389.564 1918.79 456.859 1931.7 519.777C1944.61 582.694 1921.35 649.91 2097.44 718.08Z" fill="#1D1534"/>
</svg>
