<svg width="48" height="48" viewBox="0 0 48 48" fill="none" xmlns="http://www.w3.org/2000/svg">
<path d="M13.5 40.3693C16.492 42.726 20.1913 44.0049 24 43.9993C27.963 43.9993 31.61 42.6433 34.5 40.3693M19 10.7463C12.051 12.8813 7 19.3503 7 26.9993C7 28.9243 7.32 30.7743 7.91 32.4993M29 10.7463C35.949 12.8813 41 19.3503 41 26.9993C41 28.9243 40.68 30.7743 40.09 32.4993" stroke="#FA7640" stroke-width="4"/>
<path d="M43 36.9994C43 38.3414 42.472 39.5594 41.612 40.4574C40.8089 41.2964 39.7387 41.8297 38.5853 41.9656C37.4318 42.1016 36.267 41.8317 35.2908 41.2024C34.3147 40.5731 33.588 39.6236 33.2357 38.5169C32.8833 37.4102 32.9272 36.2154 33.3598 35.1375C33.7925 34.0596 34.5869 33.166 35.6066 32.6101C36.6263 32.0541 37.8078 31.8705 38.9482 32.0907C40.0885 32.311 41.1167 32.9214 41.856 33.8171C42.5954 34.7128 42.9999 35.8379 43 36.9994ZM15 36.9994C15 38.3414 14.472 39.5594 13.612 40.4574C12.8089 41.2964 11.7387 41.8297 10.5853 41.9656C9.43182 42.1016 8.26702 41.8317 7.29084 41.2024C6.31466 40.5731 5.58801 39.6236 5.23565 38.5169C4.88329 37.4102 4.9272 36.2154 5.35984 35.1375C5.79248 34.0596 6.58686 33.166 7.60659 32.6101C8.62633 32.0541 9.8078 31.8705 10.9482 32.0907C12.0885 32.311 13.1167 32.9214 13.856 33.8171C14.5954 34.7128 14.9999 35.8379 15 36.9994ZM29 9.99939C29 11.3414 28.472 12.5594 27.612 13.4574C26.8089 14.2964 25.7387 14.8297 24.5853 14.9656C23.4318 15.1016 22.267 14.8317 21.2908 14.2024C20.3147 13.5731 19.588 12.6236 19.2357 11.5169C18.8833 10.4102 18.9272 9.21536 19.3598 8.1375C19.7925 7.05965 20.5869 6.16603 21.6066 5.61007C22.6263 5.0541 23.8078 4.87049 24.9482 5.09073C26.0885 5.31098 27.1167 5.92136 27.856 6.81707C28.5954 7.71278 28.9999 8.83794 29 9.99939Z" stroke="#FA7640" stroke-width="4" stroke-linecap="round" stroke-linejoin="round"/>
</svg>
