<svg width="38" height="38" viewBox="0 0 38 38" fill="none" xmlns="http://www.w3.org/2000/svg">
<g clip-path="url(#clip0_177_294)">
<path d="M29.5127 21.8642L29.9459 22.1162L30.1969 21.6824L38.0026 8.18803L40.424 9.58769L30.987 25.9175L19.0506 19.0417L18.6181 18.7926L18.3682 19.2247L9.30521 34.8997L8.87141 35.65H9.73806H40.6641V38.45H3.66406V5.25H6.46406V32.376V34.2444L7.39723 32.6257L17.5966 14.9345L29.5127 21.8642Z" fill="#FA7840"/>
<path d="M29.5127 21.8642L29.9459 22.1162L30.1969 21.6824L38.0026 8.18803L40.424 9.58769L30.987 25.9175L19.0506 19.0417L18.6181 18.7926L18.3682 19.2247L9.30521 34.8997L8.87141 35.65H9.73806H40.6641V38.45H3.66406V5.25H6.46406V32.376V34.2444L7.39723 32.6257L17.5966 14.9345L29.5127 21.8642Z" stroke="#FA7840"/>
<path d="M29.5127 21.8642L29.9459 22.1162L30.1969 21.6824L38.0026 8.18803L40.424 9.58769L30.987 25.9175L19.0506 19.0417L18.6181 18.7926L18.3682 19.2247L9.30521 34.8997L8.87141 35.65H9.73806H40.6641V38.45H3.66406V5.25H6.46406V32.376V34.2444L7.39723 32.6257L17.5966 14.9345L29.5127 21.8642Z" stroke="#FA7840" stroke-opacity="0.2"/>
</g>
<defs>
<clipPath id="clip0_177_294">
<rect width="38" height="38" fill="white"/>
</clipPath>
</defs>
</svg>
